HIERARCHY
ROOT root
{
	OFFSET 0.000000 0.000000 0.000000
	CHANNELS 6 Xposition Yposition Zposition Zrotation Yrotation Xrotation
	JOINT lhip
	{
		OFFSET 0.058581 -0.082280 -0.017664
		CHANNELS 3 Zrotation Yrotation Xrotation
		JOINT lknee
		{
			OFFSET 0.043451 -0.386469 0.008037
			CHANNELS 3 Zrotation Yrotation Xrotation
			JOINT lankle
			{
				OFFSET -0.014790 -0.426874 -0.037428
				CHANNELS 3 Zrotation Yrotation Xrotation
				JOINT ltoe
				{
					OFFSET 0.041054 -0.060286 0.122042
					CHANNELS 3 Zrotation Yrotation Xrotation
					End Site
					{
						OFFSET 0.000000 0.000000 0.000000
					}
				}
			}
		}
	}
	JOINT rhip
	{
		OFFSET -0.060310 -0.090513 -0.013543
		CHANNELS 3 Zrotation Yrotation Xrotation
		JOINT rknee
		{
			OFFSET -0.043257 -0.383688 -0.004843
			CHANNELS 3 Zrotation Yrotation Xrotation
			JOINT rankle
			{
				OFFSET 0.019056 -0.420046 -0.034562
				CHANNELS 3 Zrotation Yrotation Xrotation
				JOINT rtoe
				{
					OFFSET -0.034840 -0.062106 0.130323
					CHANNELS 3 Zrotation Yrotation Xrotation
					End Site
					{
						OFFSET 0.000000 0.000000 0.000000
					}
				}
			}
		}
	}
	JOINT lowerback
	{
		OFFSET 0.004439 0.124404 -0.038385
		CHANNELS 3 Zrotation Yrotation Xrotation
		JOINT upperback
		{
			OFFSET 0.004488 0.137956 0.026820
			CHANNELS 3 Zrotation Yrotation Xrotation
			JOINT chest
			{
				OFFSET -0.002265 0.056032 0.002855
				CHANNELS 3 Zrotation Yrotation Xrotation
				JOINT lowerneck
				{
					OFFSET -0.013390 0.211636 -0.033468
					CHANNELS 3 Zrotation Yrotation Xrotation
					JOINT upperneck
					{
						OFFSET 0.010113 0.088937 0.050410
						CHANNELS 3 Zrotation Yrotation Xrotation
						End Site
						{
							OFFSET 0.000000 0.000000 0.000000
						}
					}
				}
				JOINT lclavicle
				{
					OFFSET 0.071702 0.114000 -0.018898
					CHANNELS 3 Zrotation Yrotation Xrotation
					JOINT lshoulder
					{
						OFFSET 0.122921 0.045205 -0.019046
						CHANNELS 3 Zrotation Yrotation Xrotation
						JOINT lelbow
						{
							OFFSET 0.255332 -0.015649 -0.022946
							CHANNELS 3 Zrotation Yrotation Xrotation
							JOINT lwrist
							{
								OFFSET 0.265709 0.012698 -0.007375
								CHANNELS 3 Zrotation Yrotation Xrotation
								End Site
								{
									OFFSET 0.000000 0.000000 0.000000
								}
							}
						}
					}
				}
				JOINT rclavicle
				{
					OFFSET -0.082954 0.112472 -0.023707
					CHANNELS 3 Zrotation Yrotation Xrotation
					JOINT rshoulder
					{
						OFFSET -0.113228 0.046853 -0.008472
						CHANNELS 3 Zrotation Yrotation Xrotation
						JOINT relbow
						{
							OFFSET -0.260127 -0.014369 -0.031269
							CHANNELS 3 Zrotation Yrotation Xrotation
							JOINT rwrist
							{
								OFFSET -0.269108 0.006794 -0.006027
								CHANNELS 3 Zrotation Yrotation Xrotation
								End Site
								{
									OFFSET 0.000000 0.000000 0.000000
								}
							}
						}
					}
				}
			}
		}
	}
}
MOTION
Frames: 8
Frame Time: 0.033333
0.267059 0.178094 0.989605 90.476587 1.336043 86.650199 4.001518 -2.978983 0.830101 -0.994290 -11.104670 7.039944 1.648513 5.738510 -13.656337 0.000000 -0.000000 0.000000 -4.079920 -1.581595 7.267444 1.284083 0.249541 -3.184627 1.513148 -5.058718 -8.543637 0.000000 -0.000000 0.000000 -1.420124 2.203897 0.545499 2.069743 -5.171517 8.061885 0.579817 -2.947767 -4.867463 -6.197264 -12.381813 14.255328 9.029159 -15.913084 -15.335362 -20.572707 -3.171093 2.900087 -58.613328 -6.707309 12.511253 13.018730 -16.890339 -5.847412 -17.947148 -17.834614 4.771349 18.793267 9.616400 0.495875 56.480090 1.652486 11.585020 -8.935631 9.860624 -0.182504 17.855250 13.770472 -0.109125 
0.267111 0.179373 0.989345 90.388224 1.329780 86.729325 3.914356 -2.983325 0.786186 -1.022913 -11.104049 6.972784 1.586505 5.825255 -13.630155 0.000000 -0.000000 0.000000 -4.145598 -1.555265 7.167125 1.216600 0.316807 -3.221348 1.765644 -5.109942 -8.504743 0.000000 -0.000000 0.000000 -1.376327 2.171921 0.680715 2.001297 -5.151728 7.498624 0.581614 -3.006867 -4.369915 -6.230585 -13.663890 14.363496 9.666080 -16.804709 -15.989879 -20.650678 -3.054648 3.080176 -58.696870 -6.574599 12.469430 12.947106 -16.563043 -5.683297 -17.717546 -17.879787 4.474869 18.816212 9.529792 0.295178 56.334014 1.520020 11.417860 -8.954994 9.875603 -0.301583 17.380318 13.952269 -0.513618 
0.267106 0.180822 0.989306 90.226721 1.286565 86.814662 3.774779 -2.937939 0.737959 -1.035246 -11.028807 6.931329 1.644044 5.850201 -13.624837 0.000000 -0.000000 0.000000 -4.291304 -1.576418 7.015796 1.173252 0.449046 -3.190591 1.846102 -5.079195 -8.447122 0.000000 -0.000000 0.000000 -1.420994 2.174923 0.656808 2.032374 -5.170145 7.519309 0.552323 -3.028693 -4.360646 -6.204489 -14.685133 14.387010 10.110059 -17.575024 -16.344742 -20.688693 -2.881322 3.200735 -58.919627 -6.372009 12.546196 12.869890 -16.290457 -5.721114 -17.808265 -17.816269 4.420863 18.745529 9.502755 0.163477 56.400081 1.544347 11.340466 -9.068815 10.004057 -0.623921 17.224031 14.019013 -0.814187 
0.267104 0.182753 0.989239 89.995630 1.256885 86.920879 3.619017 -2.897189 0.681546 -1.059725 -10.909870 6.870325 1.714438 5.886146 -13.601077 0.000000 -0.000000 0.000000 -4.437640 -1.514603 6.828393 1.111129 0.523162 -3.161148 1.956185 -5.028046 -8.372305 0.000000 -0.000000 0.000000 -1.447307 2.191968 0.660870 2.062973 -5.150573 7.477034 0.535629 -3.051750 -4.302178 -6.126958 -15.606909 14.425613 10.541041 -18.213147 -16.672175 -20.738087 -2.693406 3.347177 -59.316910 -6.122543 12.686903 12.778129 -16.050216 -5.574547 -17.969486 -17.794577 4.374802 18.676597 9.486436 0.014668 56.564038 1.710046 11.319049 -9.208503 10.444540 -0.950276 17.016820 14.173018 -1.238832 
0.267024 0.183977 0.989229 89.848404 1.247013 86.972810 3.522939 -2.878383 0.629290 -1.077749 -10.822597 6.889984 1.769598 5.910402 -13.606880 0.000000 -0.000000 0.000000 -4.524143 -1.487560 6.715912 1.075046 0.576440 -3.137039 2.026365 -4.981350 -8.329499 0.000000 -0.000000 0.000000 -1.450593 2.226823 0.669415 2.079531 -5.126165 7.468508 0.532570 -3.045364 -4.257565 -6.083708 -16.034568 14.419609 10.752971 -18.489249 -16.834222 -20.743659 -2.619430 3.402529 -59.602153 -6.020855 12.753687 12.711077 -15.922896 -5.574453 -18.012023 -17.792525 4.247423 18.623156 9.495888 -0.061478 56.712580 1.833493 11.305448 -9.288100 10.859184 -1.219691 16.853607 14.316650 -1.570995 
0.266816 0.185703 0.989252 89.683162 1.247485 87.027284 3.375180 -2.878773 0.522658 -1.083334 -10.717921 6.989976 1.847463 5.956348 -13.617771 0.000000 -0.000000 0.000000 -4.624341 -1.450037 6.563622 1.021362 0.644726 -3.076737 2.100667 -4.935806 -8.285667 0.000000 -0.000000 0.000000 -1.428509 2.281839 0.692138 2.102160 -5.098445 7.473165 0.529379 -3.020964 -4.201034 -6.042091 -16.483250 14.381015 10.972473 -18.762772 -17.014851 -20.754660 -2.576663 3.433778 -59.946797 -5.907600 12.859908 12.602784 -15.855400 -5.597586 -18.031542 -17.793062 4.077903 18.578432 9.545514 -0.159677 56.877547 2.011955 11.317263 -9.347326 11.550228 -1.566296 16.679781 14.542006 -2.006455 
0.266593 0.187484 0.989425 89.536471 1.261668 87.064108 3.214684 -2.893872 0.420406 -1.068606 -10.616725 7.105833 1.921524 6.011474 -13.618267 0.000000 -0.000000 0.000000 -4.701814 -1.412167 6.436604 0.948557 0.683667 -3.025557 2.153547 -4.892176 -8.262232 0.000000 -0.000000 0.000000 -1.380821 2.345819 0.733862 2.125246 -5.059853 7.486419 0.535097 -2.986446 -4.182900 -6.041044 -16.813585 14.368661 11.131099 -18.959082 -17.182048 -20.774462 -2.566891 3.446543 -60.220100 -5.787071 12.980016 12.506308 -15.970014 -5.512222 -18.107956 -17.767119 4.039291 18.563613 9.637186 -0.215857 56.989142 2.186547 11.356158 -9.356932 12.333400 -1.801244 16.579112 14.786832 -2.316495 
0.266368 0.189379 0.989530 89.427180 1.252022 87.080914 3.047836 -2.915036 0.354106 -1.077865 -10.523066 7.196003 2.011222 6.042739 -13.633008 0.000000 -0.000000 0.000000 -4.814522 -1.354394 6.338337 0.884576 0.669703 -2.961008 2.228358 -4.859415 -8.232033 0.000000 -0.000000 0.000000 -1.358766 2.407131 0.786230 2.131843 -5.012274 7.498296 0.544720 -2.961596 -4.149425 -6.009433 -17.009097 14.369956 11.244859 -19.095033 -17.313209 -20.764427 -2.600205 3.487615 -60.436807 -5.712303 13.051519 12.450387 -16.215529 -5.415322 -18.169016 -17.744034 3.958104 18.539754 9.775584 -0.243020 57.159899 2.420312 11.470371 -9.359789 13.221249 -1.838820 16.449788 14.882829 -2.551494 
